HIERARCHY
ROOT Hips
{
  OFFSET 672.998 90.1962 275.313
  CHANNELS 6 Xposition Yposition Zposition Zrotation Xrotation Yrotation
  JOINT RightUpLeg
  {
    OFFSET -9.31841 -1.6209 0.0559787
    CHANNELS 3 Zrotation Xrotation Yrotation
    JOINT RightLeg
    {
      OFFSET -0.0684531 -41.8708 -0.0373107
      CHANNELS 3 Zrotation Xrotation Yrotation
      JOINT RightFoot
      {
        OFFSET 0.568603 -40.4676 0.273758
        CHANNELS 3 Zrotation Xrotation Yrotation
        End Site
        {
          OFFSET 0 -7.69 17.5
        }
      }
    }
  }
  JOINT LeftUpLeg
  {
    OFFSET 9.2691 -1.58989 -0.00732791
    CHANNELS 3 Zrotation Xrotation Yrotation
    JOINT LeftLeg
    {
      OFFSET 0.00811838 -41.8709 -0.0346618
      CHANNELS 3 Zrotation Xrotation Yrotation
      JOINT LeftFoot
      {
        OFFSET -1.30659 -42.6983 -0.641335
        CHANNELS 3 Zrotation Xrotation Yrotation
        End Site
        {
          OFFSET 0 -7.69 17.5
        }
      }
    }
  }
  JOINT Spine
  {
    OFFSET 0.0262351 14.2998 0.0450285
    CHANNELS 3 Zrotation Xrotation Yrotation
    JOINT Spine1
    {
      OFFSET 0.0149676 9.72129 0.026936
      CHANNELS 3 Zrotation Xrotation Yrotation
      JOINT Spine2
      {
        OFFSET 0.00806361 10.1231 0.0120352
        CHANNELS 3 Zrotation Xrotation Yrotation
        JOINT Spine3
        {
          OFFSET 0.015413 9.72195 0.014207
          CHANNELS 3 Zrotation Xrotation Yrotation
          JOINT Neck
          {
            OFFSET 0.0199721 10.3864 0.171661
            CHANNELS 3 Zrotation Xrotation Yrotation
            JOINT Head
            {
              OFFSET 0.122561 9.45761 0.0825401
              CHANNELS 3 Zrotation Xrotation Yrotation
              End Site
              {
                OFFSET 0 15.95 0
              }
            }
          }
          JOINT RightShoulder
          {
            OFFSET -3.21667 6.92734 0.181141
            CHANNELS 3 Zrotation Xrotation Yrotation
            JOINT RightArm
            {
              OFFSET -12.7874 -0.0119469 0.180712
              CHANNELS 3 Zrotation Xrotation Yrotation
              JOINT RightForeArm
              {
                OFFSET -26.4411 -0.0552213 -0.0126356
                CHANNELS 3 Zrotation Xrotation Yrotation
                JOINT RightHand
                {
                  OFFSET -25.9517 -0.0175502 0.0690925
                  CHANNELS 3 Zrotation Xrotation Yrotation
                  JOINT RightHandThumb1
                  {
                    OFFSET -2.48905 0.190105 3.12053
                    CHANNELS 3 Zrotation Xrotation Yrotation
                    JOINT RightHandThumb2
                    {
                      OFFSET -3.68274 0 0
                      CHANNELS 3 Zrotation Xrotation Yrotation
                      JOINT RightHandThumb3
                      {
                        OFFSET -2.55832 0 0
                        CHANNELS 3 Zrotation Xrotation Yrotation
                        End Site
                        {
                          OFFSET -2.194 0 0
                        }
                      }
                    }
                  }
                  JOINT RightInHandIndex
                  {
                    OFFSET -3.22368 0.508421 1.97842
                    CHANNELS 3 Zrotation Xrotation Yrotation
                    JOINT RightHandIndex1
                    {
                      OFFSET -5.21684 -0.091368 0.999158
                      CHANNELS 3 Zrotation Xrotation Yrotation
                      JOINT RightHandIndex2
                      {
                        OFFSET -3.61937 0 0
                        CHANNELS 3 Zrotation Xrotation Yrotation
                        JOINT RightHandIndex3
                        {
                          OFFSET -2.0521 0 0
                          CHANNELS 3 Zrotation Xrotation Yrotation
                          End Site
                          {
                            OFFSET -1.805 0 0
                          }
                        }
                      }
                    }
                  }
                  JOINT RightInHandMiddle
                  {
                    OFFSET -3.38211 0.517263 0.756737
                    CHANNELS 3 Zrotation Xrotation Yrotation
                    JOINT RightHandMiddle1
                    {
                      OFFSET -5.17411 -0.084 0.313895
                      CHANNELS 3 Zrotation Xrotation Yrotation
                      JOINT RightHandMiddle2
                      {
                        OFFSET -3.94947 0 0
                        CHANNELS 3 Zrotation Xrotation Yrotation
                        JOINT RightHandMiddle3
                        {
                          OFFSET -2.47579 0 0
                          CHANNELS 3 Zrotation Xrotation Yrotation
                          End Site
                          {
                            OFFSET -1.975 0 0
                          }
                        }
                      }
                    }
                  }
                  JOINT RightInHandRing
                  {
                    OFFSET -3.36516 0.537895 -0.128947
                    CHANNELS 3 Zrotation Xrotation Yrotation
                    JOINT RightHandRing1
                    {
                      OFFSET -4.63474 -0.022105 -0.478947
                      CHANNELS 3 Zrotation Xrotation Yrotation
                      JOINT RightHandRing2
                      {
                        OFFSET -3.44238 0 0
                        CHANNELS 3 Zrotation Xrotation Yrotation
                        JOINT RightHandRing3
                        {
                          OFFSET -2.3881 0 0
                          CHANNELS 3 Zrotation Xrotation Yrotation
                          End Site
                          {
                            OFFSET -1.857 0 0
                          }
                        }
                      }
                    }
                  }
                  JOINT RightInHandPinky
                  {
                    OFFSET -3.16105 0.469368 -1.20179
                    CHANNELS 3 Zrotation Xrotation Yrotation
                    JOINT RightHandPinky1
                    {
                      OFFSET -4.14105 -0.022105 -1.09053
                      CHANNELS 3 Zrotation Xrotation Yrotation
                      JOINT RightHandPinky2
                      {
                        OFFSET -2.75653 0 0
                        CHANNELS 3 Zrotation Xrotation Yrotation
                        JOINT RightHandPinky3
                        {
                          OFFSET -1.74189 0 0
                          CHANNELS 3 Zrotation Xrotation Yrotation
                          End Site
                          {
                            OFFSET -1.645 0 0
                          }
                        }
                      }
                    }
                  }
                }
              }
            }
          }
          JOINT LeftShoulder
          {
            OFFSET 3.24181 6.96466 0.0153087
            CHANNELS 3 Zrotation Xrotation Yrotation
            JOINT LeftArm
            {
              OFFSET 12.7637 0.0263587 -0.0591898
              CHANNELS 3 Zrotation Xrotation Yrotation
              JOINT LeftForeArm
              {
                OFFSET 26.5032 0.0171469 -0.0533605
                CHANNELS 3 Zrotation Xrotation Yrotation
                JOINT LeftHand
                {
                  OFFSET 26.017 0.224981 -0.0848175
                  CHANNELS 3 Zrotation Xrotation Yrotation
                  JOINT LeftHandThumb1
                  {
                    OFFSET 2.48905 0.190105 3.12053
                    CHANNELS 3 Zrotation Xrotation Yrotation
                    JOINT LeftHandThumb2
                    {
                      OFFSET 3.68274 0 0
                      CHANNELS 3 Zrotation Xrotation Yrotation
                      JOINT LeftHandThumb3
                      {
                        OFFSET 2.55832 0 0
                        CHANNELS 3 Zrotation Xrotation Yrotation
                        End Site
                        {
                          OFFSET 2.194 0 0
                        }
                      }
                    }
                  }
                  JOINT LeftInHandIndex
                  {
                    OFFSET 3.22368 0.508421 1.97842
                    CHANNELS 3 Zrotation Xrotation Yrotation
                    JOINT LeftHandIndex1
                    {
                      OFFSET 5.21684 -0.091368 0.999158
                      CHANNELS 3 Zrotation Xrotation Yrotation
                      JOINT LeftHandIndex2
                      {
                        OFFSET 3.61937 0 0
                        CHANNELS 3 Zrotation Xrotation Yrotation
                        JOINT LeftHandIndex3
                        {
                          OFFSET 2.0521 0 0
                          CHANNELS 3 Zrotation Xrotation Yrotation
                          End Site
                          {
                            OFFSET 1.805 0 0
                          }
                        }
                      }
                    }
                  }
                  JOINT LeftInHandMiddle
                  {
                    OFFSET 3.38211 0.517263 0.756737
                    CHANNELS 3 Zrotation Xrotation Yrotation
                    JOINT LeftHandMiddle1
                    {
                      OFFSET 5.17411 -0.084 0.313895
                      CHANNELS 3 Zrotation Xrotation Yrotation
                      JOINT LeftHandMiddle2
                      {
                        OFFSET 3.94947 0 0
                        CHANNELS 3 Zrotation Xrotation Yrotation
                        JOINT LeftHandMiddle3
                        {
                          OFFSET 2.47579 0 0
                          CHANNELS 3 Zrotation Xrotation Yrotation
                          End Site
                          {
                            OFFSET 1.975 0 0
                          }
                        }
                      }
                    }
                  }
                  JOINT LeftInHandRing
                  {
                    OFFSET 3.36516 0.537895 -0.128947
                    CHANNELS 3 Zrotation Xrotation Yrotation
                    JOINT LeftHandRing1
                    {
                      OFFSET 4.63474 -0.022105 -0.478947
                      CHANNELS 3 Zrotation Xrotation Yrotation
                      JOINT LeftHandRing2
                      {
                        OFFSET 3.44238 0 0
                        CHANNELS 3 Zrotation Xrotation Yrotation
                        JOINT LeftHandRing3
                        {
                          OFFSET 2.3881 0 0
                          CHANNELS 3 Zrotation Xrotation Yrotation
                          End Site
                          {
                            OFFSET 1.857 0 0
                          }
                        }
                      }
                    }
                  }
                  JOINT LeftInHandPinky
                  {
                    OFFSET 3.16105 0.469368 -1.20179
                    CHANNELS 3 Zrotation Xrotation Yrotation
                    JOINT LeftHandPinky1
                    {
                      OFFSET 4.14105 -0.022105 -1.09053
                      CHANNELS 3 Zrotation Xrotation Yrotation
                      JOINT LeftHandPinky2
                      {
                        OFFSET 2.75653 0 0
                        CHANNELS 3 Zrotation Xrotation Yrotation
                        JOINT LeftHandPinky3
                        {
                          OFFSET 1.74189 0 0
                          CHANNELS 3 Zrotation Xrotation Yrotation
                          End Site
                          {
                            OFFSET 1.645 0 0
                          }
                        }
                      }
                    }
                  }
                }
              }
            }
          }
        }
      }
    }
  }
}
MOTION
Frames:	7
Frame Time:	0.00833333
673.34 87.0873 256.715 22.1873 2.82125 -112.65 30.6433 -39.1334 44.8285 -3.65559 22.4334 -20.596 13.2406 7.00251 50.7004 32.1068 -20.6195 9.2504 -15.6455 45.2025 18.3898 -5.65291 -16.0871 36.1931 -5.38986 4.71166 -19.8618 -1.4988 0.585052 -5.14883 -2.45143 0.667544 -8.23385 -0.504077 -0.561619 2.73446 0.120617 -7.43706 43.4703 -7.62595 1.75929 25.6422 2.27063 -2.08085 -23.5504 49.3587 -63.6137 26.2105 33.1379 -18.4266 137.418 17.5463 -22.5308 12.2103 28.184 10.7294 19.1592 0 0 -10 -1.05399e-15 3.18055e-15 -10 -4.77083e-15 -3.18055e-15 -3.18055e-15 19.9818 0.871897 2.3964 24 -1.27222e-14 -7.95139e-16 20 -9.54166e-15 -4.77083e-15 -4.77083e-15 -3.18055e-15 -3.18055e-15 20 0 3.18055e-15 24 -3.18055e-15 3.97569e-15 20 -3.18055e-15 7.95139e-16 -4.77083e-15 -3.18055e-15 -3.18055e-15 19.9748 -1.02565 -2.81938 24 -3.18055e-15 6.36111e-15 20 -3.18055e-15 7.95139e-16 -4.77083e-15 -3.18055e-15 -3.18055e-15 19.7815 -3.00948 -8.30515 24 3.18055e-15 5.96354e-15 20 3.18055e-15 -0 9.44555 -12.8952 -39.1756 9.77316 -1.5828 -125.936 34.1796 -26.7846 -36.7953 -2.27909 9.18533 -20.2809 -28.184 10.7294 -19.1592 -3.72279e-15 -6.36111e-15 10 -2.10798e-15 -6.36111e-15 10 6.36111e-15 3.18055e-15 -3.18055e-15 -19.9818 0.871897 -2.3964 -24 0 -3.97569e-16 -20 0 1.59028e-15 6.36111e-15 3.18055e-15 -3.18055e-15 -20 0 -6.36111e-15 -24 6.36111e-15 -7.95139e-16 -20 3.18055e-15 1.59028e-15 6.36111e-15 3.18055e-15 -3.18055e-15 -19.9748 -1.02565 2.81938 -24 -6.36111e-15 7.95139e-16 -20 0 -1.59028e-15 6.36111e-15 3.18055e-15 -3.18055e-15 -19.7815 -3.00948 8.30515 -24 -3.18055e-15 -0 -20 6.36111e-15 -3.18055e-15 
673.385 87.0632 256.847 22.2342 2.87006 -112.71 30.763 -39.1654 44.8614 -3.64242 22.5218 -20.4896 13.2077 6.86901 50.6173 32.0394 -20.8803 9.34021 -15.4195 45.611 17.847 -4.99633 -15.9464 36.3975 -5.38494 4.73197 -19.8768 -1.49856 0.586562 -5.15289 -2.45036 0.67475 -8.24016 -0.503805 -0.561465 2.73476 0.128485 -7.41966 43.4947 -7.5936 1.74692 25.6557 2.31567 -2.11041 -23.5493 49.8194 -63.6656 26.4417 32.8646 -18.4465 137.256 17.7276 -22.573 12.4604 28.184 10.7294 19.1592 3.22962e-15 0 -10 3.72279e-15 -6.36111e-15 -10 -1.59028e-15 3.18055e-15 3.18055e-15 19.9818 0.871897 2.3964 24 6.36111e-15 7.95139e-16 20 3.18055e-15 -1.59028e-15 -1.59028e-15 3.18055e-15 3.18055e-15 20 -3.18055e-15 -6.36111e-15 24 9.54166e-15 7.95139e-16 20 -1.27222e-14 7.95139e-16 -1.59028e-15 3.18055e-15 3.18055e-15 19.9748 -1.02565 -2.81938 24 0 7.95139e-16 20 -9.54166e-15 -7.95139e-16 -1.59028e-15 3.18055e-15 3.18055e-15 19.7815 -3.00948 -8.30515 24 -3.18055e-15 4.96962e-16 20 6.36111e-15 3.18055e-15 9.56264 -12.9157 -39.1404 9.71969 -1.69066 -126.055 34.1558 -26.6354 -36.5464 -2.28576 9.17771 -20.4682 -28.184 10.7294 -19.1592 2.6688e-15 3.18055e-15 10 2.6688e-15 3.18055e-15 10 3.18055e-15 -3.18055e-15 -6.36111e-15 -19.9818 0.871897 -2.3964 -24 -6.36111e-15 -3.57812e-15 -20 0 -0 3.18055e-15 -3.18055e-15 -6.36111e-15 -20 3.18055e-15 -1.59028e-15 -24 9.54166e-15 -7.95139e-16 -20 0 -0 3.18055e-15 -3.18055e-15 -6.36111e-15 -19.9748 -1.02565 2.81938 -24 3.18055e-15 -3.18055e-15 -20 3.18055e-15 -3.18055e-15 3.18055e-15 -3.18055e-15 -6.36111e-15 -19.7815 -3.00948 8.30515 -24 0 -4.77083e-15 -20 -9.54166e-15 -3.18055e-15 
673.442 87.044 256.988 22.3105 2.95038 -112.756 30.929 -39.2888 44.8123 -3.60344 22.6706 -20.2419 13.1524 6.69107 50.4796 32.0281 -21.1661 9.45157 -15.1877 45.9784 17.2946 -4.2812 -15.7556 36.5996 -5.35241 4.73933 -19.8869 -1.49105 0.586394 -5.15364 -2.4377 0.679749 -8.24183 -0.50366 -0.561398 2.73493 0.13372 -7.40852 43.5217 -7.57833 1.74913 25.6688 2.3869 -2.13619 -23.4747 50.2622 -63.7494 26.6991 32.5853 -18.4889 137.063 18.0388 -22.2103 12.7463 28.184 10.7294 19.1592 4.21597e-15 -1.27222e-14 -10 5.3376e-15 -6.36111e-15 -10 -3.18055e-15 3.18055e-15 -0 19.9818 0.871897 2.3964 24 0 -1.03368e-14 20 3.18055e-15 -3.18055e-15 -3.18055e-15 3.18055e-15 -0 20 3.18055e-15 -0 24 -3.18055e-15 7.95139e-16 20 3.18055e-15 -4.77083e-15 -3.18055e-15 3.18055e-15 -0 19.9748 -1.02565 -2.81938 24 6.36111e-15 -7.95139e-16 20 1.27222e-14 1.59028e-15 -3.18055e-15 3.18055e-15 -0 19.7815 -3.00948 -8.30515 24 -3.18055e-15 -3.67752e-15 20 -9.54166e-15 -0 9.68032 -12.931 -39.1524 9.65513 -1.74888 -126.123 34.1343 -26.4624 -36.2636 -2.34233 9.16937 -20.63 -28.184 10.7294 -19.1592 -3.22962e-15 0 10 3.22962e-15 0 10 1.27222e-14 0 3.18055e-15 -19.9818 0.871897 -2.3964 -24 6.36111e-15 -3.97569e-16 -20 0 3.18055e-15 1.27222e-14 0 3.18055e-15 -20 3.18055e-15 -9.54166e-15 -24 -3.18055e-15 3.97569e-15 -20 9.54166e-15 1.59028e-15 1.27222e-14 0 3.18055e-15 -19.9748 -1.02565 2.81938 -24 -3.18055e-15 3.97569e-15 -20 6.36111e-15 -3.18055e-15 1.27222e-14 0 3.18055e-15 -19.7815 -3.00948 8.30515 -24 0 -3.18055e-15 -20 3.18055e-15 -0 
673.505 87.0254 257.131 22.4096 3.0228 -112.795 31.0609 -39.5498 44.8241 -3.46777 22.8874 -20.0459 13.1154 6.51507 50.323 32.0415 -21.4873 9.56213 -14.9999 46.3261 16.8069 -3.56057 -15.5627 36.7882 -5.30442 4.72501 -19.8937 -1.4787 0.585698 -5.15428 -2.41783 0.679239 -8.2433 -0.503624 -0.561411 2.73499 0.139687 -7.41669 43.5518 -7.5754 1.74064 25.677 2.40589 -2.16275 -23.4924 50.9379 -63.7617 27.1834 32.325 -18.4762 136.809 18.3234 -21.591 13.0344 28.184 10.7294 19.1592 -9.68886e-15 0 -10 6.3916e-15 -9.54166e-15 -10 1.59028e-15 -3.18055e-15 3.18055e-15 19.9818 0.871897 2.3964 24 -6.36111e-15 -1.59028e-15 20 -3.18055e-15 -0 1.59028e-15 -3.18055e-15 3.18055e-15 20 0 -3.18055e-15 24 3.18055e-15 4.77083e-15 20 -6.36111e-15 -0 1.59028e-15 -3.18055e-15 3.18055e-15 19.9748 -1.02565 -2.81938 24 3.18055e-15 -2.78299e-15 20 -9.54166e-15 -7.95139e-16 1.59028e-15 -3.18055e-15 3.18055e-15 19.7815 -3.00948 -8.30515 24 -9.54166e-15 -4.95098e-15 20 -9.54166e-15 -3.18055e-15 9.79876 -12.9576 -39.151 9.54914 -1.76157 -126.191 34.0969 -26.2525 -35.9673 -2.44484 9.1844 -20.7621 -28.184 10.7294 -19.1592 -1.05399e-15 -3.18055e-15 10 -8.96877e-16 -6.36111e-15 10 -4.77083e-15 -1.27222e-14 6.36111e-15 -19.9818 0.871897 -2.3964 -24 -6.36111e-15 1.98785e-15 -20 -9.54166e-15 1.59028e-15 -4.77083e-15 -1.27222e-14 6.36111e-15 -20 -9.54166e-15 1.59028e-15 -24 6.36111e-15 7.95139e-16 -20 -9.54166e-15 1.59028e-15 -4.77083e-15 -1.27222e-14 6.36111e-15 -19.9748 -1.02565 2.81938 -24 6.36111e-15 1.59028e-15 -20 0 -3.18055e-15 -4.77083e-15 -1.27222e-14 6.36111e-15 -19.7815 -3.00948 8.30515 -24 -6.36111e-15 -4.77083e-15 -20 0 -0 
673.576 87.0066 257.279 22.5641 3.08889 -112.809 31.1986 -39.863 44.9475 -3.29723 23.1126 -19.9397 13.0949 6.32868 50.1473 32.1116 -21.8791 9.6448 -14.9147 46.652 16.4575 -2.90213 -15.3975 36.9449 -5.23674 4.68005 -19.8979 -1.46004 0.584665 -5.15428 -2.3876 0.677837 -8.24391 -0.503678 -0.561496 2.73496 0.143647 -7.43061 43.5518 -7.56563 1.70481 25.6671 2.38269 -2.20851 -23.6091 51.7833 -63.6486 27.8328 32.1043 -18.4047 136.535 18.497 -21.0658 13.245 28.184 10.7294 19.1592 4.35126e-15 6.36111e-15 -10 -5.3376e-15 6.36111e-15 -10 1.59028e-15 3.18055e-15 6.36111e-15 19.9818 0.871897 2.3964 24 -3.18055e-15 1.03368e-14 20 -6.36111e-15 8.74653e-15 1.59028e-15 3.18055e-15 6.36111e-15 20 0 9.54166e-15 24 6.36111e-15 6.36111e-15 20 0 3.97569e-15 1.59028e-15 3.18055e-15 6.36111e-15 19.9748 -1.02565 -2.81938 24 6.36111e-15 6.75868e-15 20 0 -0 1.59028e-15 3.18055e-15 6.36111e-15 19.7815 -3.00948 -8.30515 24 3.18055e-15 7.35503e-15 20 -6.36111e-15 3.18055e-15 9.92681 -12.9902 -39.1448 9.41418 -1.73713 -126.258 34.0496 -26.0166 -35.6644 -2.58543 9.22917 -20.8739 -28.184 10.7294 -19.1592 3.22962e-15 0 10 4.44073e-15 0 10 -3.18055e-15 -3.18055e-15 -0 -19.9818 0.871897 -2.3964 -24 6.36111e-15 1.98785e-15 -20 9.54166e-15 -1.59028e-15 -3.18055e-15 -3.18055e-15 -0 -20 -9.54166e-15 3.18055e-15 -24 3.18055e-15 4.77083e-15 -20 -6.36111e-15 -1.59028e-15 -3.18055e-15 -3.18055e-15 -0 -19.9748 -1.02565 2.81938 -24 -3.18055e-15 1.59028e-15 -20 0 -0 -3.18055e-15 -3.18055e-15 -0 -19.7815 -3.00948 8.30515 -24 -3.18055e-15 -0 -20 -3.18055e-15 -3.18055e-15 
673.666 86.9867 257.44 22.7509 3.16098 -112.811 31.3779 -40.0838 45.1587 -3.17712 23.2859 -19.8683 13.0387 6.11439 49.911 32.2487 -22.2998 9.70552 -14.9379 46.9506 16.2488 -2.3365 -15.2829 37.0563 -5.15519 4.62478 -19.8925 -1.43743 0.583484 -5.15071 -2.35099 0.676754 -8.23777 -0.503805 -0.561647 2.73485 0.14406 -7.44568 43.5303 -7.56015 1.66803 25.6449 2.37623 -2.19155 -23.6358 52.7344 -63.5432 28.5811 31.871 -18.3302 136.239 18.6395 -20.919 13.4692 28.184 10.7294 19.1592 -6.45924e-15 0 -10 5.60818e-16 3.18055e-15 -10 -1.43125e-14 -1.27222e-14 -9.54166e-15 19.9818 0.871897 2.3964 24 3.18055e-15 -5.56597e-15 20 3.18055e-15 -2.38542e-15 -1.43125e-14 -1.27222e-14 -9.54166e-15 20 -6.36111e-15 -9.54166e-15 24 0 -5.56597e-15 20 -3.18055e-15 -1.59028e-15 -1.43125e-14 -1.27222e-14 -9.54166e-15 19.9748 -1.02565 -2.81938 24 -3.18055e-15 -8.74653e-15 20 6.36111e-15 -3.18055e-15 -1.43125e-14 -1.27222e-14 -9.54166e-15 19.7815 -3.00948 -8.30515 24 9.54166e-15 7.45443e-16 20 -6.36111e-15 -0 10.0662 -13.0123 -39.1516 9.2807 -1.68651 -126.283 33.9955 -25.7895 -35.3568 -2.7131 9.30231 -20.9931 -28.184 10.7294 -19.1592 -0 0 10 -2.42221e-15 0 10 -1.59028e-15 6.36111e-15 -6.36111e-15 -19.9818 0.871897 -2.3964 -24 -6.36111e-15 -3.57812e-15 -20 -9.54166e-15 3.18055e-15 -1.59028e-15 6.36111e-15 -6.36111e-15 -20 -3.18055e-15 -0 -24 -6.36111e-15 -2.38542e-15 -20 -9.54166e-15 3.18055e-15 -1.59028e-15 6.36111e-15 -6.36111e-15 -19.9748 -1.02565 2.81938 -24 3.18055e-15 2.38542e-15 -20 0 3.18055e-15 -1.59028e-15 6.36111e-15 -6.36111e-15 -19.7815 -3.00948 8.30515 -24 3.18055e-15 1.59028e-15 -20 3.18055e-15 -6.36111e-15 
673.772 86.9667 257.616 22.9518 3.23058 -112.806 31.5624 -40.3256 45.4141 -3.10255 23.4653 -19.8747 12.9696 5.96641 49.7376 32.4364 -22.7307 9.77997 -15.0326 47.2187 16.1385 -1.85306 -15.2095 37.1135 -5.05987 4.57233 -19.8795 -1.41168 0.580993 -5.14414 -2.30907 0.676917 -8.22909 -0.503985 -0.561857 2.73467 0.143056 -7.47361 43.4979 -7.56813 1.63164 25.6115 2.4082 -2.1712 -23.5795 53.7171 -63.4163 29.3817 31.6487 -18.2447 135.9 18.8432 -20.6989 13.7722 28.184 10.7294 19.1592 1.54717e-15 -9.54166e-15 -10 -8.63487e-15 -3.18055e-15 -10 1.11319e-14 3.18055e-15 6.36111e-15 19.9818 0.871897 2.3964 24 6.36111e-15 1.03368e-14 20 9.54166e-15 2.38542e-15 1.11319e-14 3.18055e-15 6.36111e-15 20 0 9.54166e-15 24 6.36111e-15 6.36111e-15 20 0 7.15625e-15 1.11319e-14 3.18055e-15 6.36111e-15 19.9748 -1.02565 -2.81938 24 3.18055e-15 2.78299e-15 20 -6.36111e-15 3.97569e-15 1.11319e-14 3.18055e-15 6.36111e-15 19.7815 -3.00948 -8.30515 24 -9.54166e-15 4.07509e-15 20 -3.18055e-15 3.18055e-15 10.2299 -12.9969 -39.1117 9.15385 -1.67882 -126.295 33.9175 -25.6024 -35.0287 -2.79808 9.41737 -21.1341 -28.184 10.7294 -19.1592 -2.17563e-15 3.18055e-15 10 -9.6452e-16 3.18055e-15 10 -1.11319e-14 0 -0 -19.9818 0.871897 -2.3964 -24 3.18055e-15 -3.97569e-15 -20 0 -9.54166e-15 -1.11319e-14 0 -0 -20 -9.54166e-15 -7.15625e-15 -24 -3.18055e-15 -7.15625e-15 -20 0 -0 -1.11319e-14 0 -0 -19.9748 -1.02565 2.81938 -24 -3.18055e-15 -4.77083e-15 -20 0 3.18055e-15 -1.11319e-14 0 -0 -19.7815 -3.00948 8.30515 -24 9.54166e-15 -1.59028e-15 -20 3.18055e-15 -3.18055e-15 
